<mxfile host="app.diagrams.net" modified="2023-05-30T14:25:24.973Z" agent="Mozilla/5.0 (X11; Ubuntu; Linux x86_64; rv:109.0) Gecko/20100101 Firefox/113.0" etag="wXT4hJenazR7Fmy5TWEO" version="21.3.5" type="device">
  <diagram name="Page-1" id="d66fe2ae-3e9f-cf2f-6d29-e24063ad5d60">
    <mxGraphModel dx="2534" dy="1648" grid="1" gridSize="10" guides="1" tooltips="1" connect="1" arrows="1" fold="1" page="1" pageScale="1" pageWidth="1100" pageHeight="850" background="none" math="0" shadow="0">
      <root>
        <mxCell id="0" />
        <mxCell id="1" parent="0" />
        <mxCell id="i6YwtUnQKHBLyYmnIK1T-20" value="DELAY" style="edgeStyle=orthogonalEdgeStyle;rounded=0;orthogonalLoop=1;jettySize=auto;html=1;entryX=0;entryY=0.5;entryDx=0;entryDy=0;entryPerimeter=0;" parent="1" source="i6YwtUnQKHBLyYmnIK1T-14" target="i6YwtUnQKHBLyYmnIK1T-18" edge="1">
          <mxGeometry relative="1" as="geometry" />
        </mxCell>
        <mxCell id="HWIHHWXbk4KBUpeE7iqn-2" value="DELAY" style="rounded=0;orthogonalLoop=1;jettySize=auto;html=1;entryX=0;entryY=0.5;entryDx=0;entryDy=0;entryPerimeter=0;" edge="1" parent="1" target="i6YwtUnQKHBLyYmnIK1T-28">
          <mxGeometry x="0.391" y="-3" relative="1" as="geometry">
            <mxPoint x="-800" y="-750" as="sourcePoint" />
            <mxPoint as="offset" />
          </mxGeometry>
        </mxCell>
        <mxCell id="i6YwtUnQKHBLyYmnIK1T-14" value="" style="fontColor=#0066CC;verticalAlign=top;verticalLabelPosition=bottom;labelPosition=center;align=center;html=1;outlineConnect=0;fillColor=#CCCCCC;strokeColor=#6881B3;gradientColor=none;gradientDirection=north;strokeWidth=2;shape=mxgraph.networks.radio_tower;" parent="1" vertex="1">
          <mxGeometry x="-860" y="-800" width="55" height="100" as="geometry" />
        </mxCell>
        <mxCell id="i6YwtUnQKHBLyYmnIK1T-19" style="rounded=0;orthogonalLoop=1;jettySize=auto;html=1;exitX=1;exitY=0.5;exitDx=0;exitDy=0;exitPerimeter=0;" parent="1" source="i6YwtUnQKHBLyYmnIK1T-16" target="i6YwtUnQKHBLyYmnIK1T-14" edge="1">
          <mxGeometry relative="1" as="geometry" />
        </mxCell>
        <mxCell id="i6YwtUnQKHBLyYmnIK1T-16" value="UTENTE" style="fontColor=#0066CC;verticalAlign=top;verticalLabelPosition=bottom;labelPosition=center;align=center;html=1;outlineConnect=0;fillColor=#CCCCCC;strokeColor=#6881B3;gradientColor=none;gradientDirection=north;strokeWidth=2;shape=mxgraph.networks.mobile;" parent="1" vertex="1">
          <mxGeometry x="-1040" y="-800" width="50" height="100" as="geometry" />
        </mxCell>
        <mxCell id="i6YwtUnQKHBLyYmnIK1T-21" style="rounded=0;orthogonalLoop=1;jettySize=auto;html=1;" parent="1" source="i6YwtUnQKHBLyYmnIK1T-17" target="i6YwtUnQKHBLyYmnIK1T-14" edge="1">
          <mxGeometry relative="1" as="geometry" />
        </mxCell>
        <mxCell id="i6YwtUnQKHBLyYmnIK1T-17" value="UTENTE" style="fontColor=#0066CC;verticalAlign=top;verticalLabelPosition=bottom;labelPosition=center;align=center;html=1;outlineConnect=0;fillColor=#CCCCCC;strokeColor=#6881B3;gradientColor=none;gradientDirection=north;strokeWidth=2;shape=mxgraph.networks.mobile;" parent="1" vertex="1">
          <mxGeometry x="-1040" y="-650" width="50" height="100" as="geometry" />
        </mxCell>
        <mxCell id="i6YwtUnQKHBLyYmnIK1T-30" style="rounded=0;orthogonalLoop=1;jettySize=auto;html=1;exitX=1;exitY=0.5;exitDx=0;exitDy=0;exitPerimeter=0;entryX=0;entryY=0.5;entryDx=0;entryDy=0;entryPerimeter=0;" parent="1" source="i6YwtUnQKHBLyYmnIK1T-18" target="i6YwtUnQKHBLyYmnIK1T-29" edge="1">
          <mxGeometry relative="1" as="geometry" />
        </mxCell>
        <mxCell id="i6YwtUnQKHBLyYmnIK1T-18" value="NODO WORKER" style="fontColor=#0066CC;verticalAlign=top;verticalLabelPosition=bottom;labelPosition=center;align=center;html=1;outlineConnect=0;fillColor=#CCCCCC;strokeColor=#6881B3;gradientColor=none;gradientDirection=north;strokeWidth=2;shape=mxgraph.networks.rack;" parent="1" vertex="1">
          <mxGeometry x="-610" y="-800" width="50" height="100" as="geometry" />
        </mxCell>
        <mxCell id="i6YwtUnQKHBLyYmnIK1T-22" value="DELAY" style="edgeStyle=orthogonalEdgeStyle;rounded=0;orthogonalLoop=1;jettySize=auto;html=1;entryX=0;entryY=0.5;entryDx=0;entryDy=0;entryPerimeter=0;" parent="1" source="i6YwtUnQKHBLyYmnIK1T-23" target="i6YwtUnQKHBLyYmnIK1T-28" edge="1">
          <mxGeometry relative="1" as="geometry" />
        </mxCell>
        <mxCell id="HWIHHWXbk4KBUpeE7iqn-1" value="DELAY" style="rounded=0;orthogonalLoop=1;jettySize=auto;html=1;entryX=0;entryY=0.5;entryDx=0;entryDy=0;entryPerimeter=0;" edge="1" parent="1" target="i6YwtUnQKHBLyYmnIK1T-18">
          <mxGeometry x="0.391" y="3" relative="1" as="geometry">
            <mxPoint x="-800" y="-450" as="sourcePoint" />
            <mxPoint as="offset" />
          </mxGeometry>
        </mxCell>
        <mxCell id="i6YwtUnQKHBLyYmnIK1T-23" value="" style="fontColor=#0066CC;verticalAlign=top;verticalLabelPosition=bottom;labelPosition=center;align=center;html=1;outlineConnect=0;fillColor=#CCCCCC;strokeColor=#6881B3;gradientColor=none;gradientDirection=north;strokeWidth=2;shape=mxgraph.networks.radio_tower;" parent="1" vertex="1">
          <mxGeometry x="-860" y="-500" width="55" height="100" as="geometry" />
        </mxCell>
        <mxCell id="i6YwtUnQKHBLyYmnIK1T-24" style="rounded=0;orthogonalLoop=1;jettySize=auto;html=1;exitX=1;exitY=0.5;exitDx=0;exitDy=0;exitPerimeter=0;" parent="1" source="i6YwtUnQKHBLyYmnIK1T-25" target="i6YwtUnQKHBLyYmnIK1T-23" edge="1">
          <mxGeometry relative="1" as="geometry" />
        </mxCell>
        <mxCell id="i6YwtUnQKHBLyYmnIK1T-25" value="UTENTE" style="fontColor=#0066CC;verticalAlign=top;verticalLabelPosition=bottom;labelPosition=center;align=center;html=1;outlineConnect=0;fillColor=#CCCCCC;strokeColor=#6881B3;gradientColor=none;gradientDirection=north;strokeWidth=2;shape=mxgraph.networks.mobile;" parent="1" vertex="1">
          <mxGeometry x="-1040" y="-500" width="50" height="100" as="geometry" />
        </mxCell>
        <mxCell id="i6YwtUnQKHBLyYmnIK1T-32" style="rounded=0;orthogonalLoop=1;jettySize=auto;html=1;exitX=1;exitY=0.5;exitDx=0;exitDy=0;exitPerimeter=0;entryX=0;entryY=0.5;entryDx=0;entryDy=0;entryPerimeter=0;" parent="1" source="i6YwtUnQKHBLyYmnIK1T-28" target="i6YwtUnQKHBLyYmnIK1T-29" edge="1">
          <mxGeometry relative="1" as="geometry">
            <mxPoint x="-430" y="-600" as="targetPoint" />
          </mxGeometry>
        </mxCell>
        <mxCell id="i6YwtUnQKHBLyYmnIK1T-28" value="NODO WORKER" style="fontColor=#0066CC;verticalAlign=top;verticalLabelPosition=bottom;labelPosition=center;align=center;html=1;outlineConnect=0;fillColor=#CCCCCC;strokeColor=#6881B3;gradientColor=none;gradientDirection=north;strokeWidth=2;shape=mxgraph.networks.rack;" parent="1" vertex="1">
          <mxGeometry x="-610" y="-500" width="50" height="100" as="geometry" />
        </mxCell>
        <mxCell id="i6YwtUnQKHBLyYmnIK1T-29" value="NODO CONTROL PLANE" style="fontColor=#0066CC;verticalAlign=top;verticalLabelPosition=bottom;labelPosition=center;align=center;html=1;outlineConnect=0;fillColor=#CCCCCC;strokeColor=#6881B3;gradientColor=none;gradientDirection=north;strokeWidth=2;shape=mxgraph.networks.rack;" parent="1" vertex="1">
          <mxGeometry x="-370" y="-650" width="50" height="100" as="geometry" />
        </mxCell>
      </root>
    </mxGraphModel>
  </diagram>
</mxfile>
